<svg id="Layer_1" data-name="Layer 1" xmlns="http://www.w3.org/2000/svg" viewBox="0 0 701 701"><defs><style>.cls-1{fill:none;stroke:#fff;stroke-miterlimit:10;stroke-width:14px;}.cls-2{fill:#fff;}</style></defs><title>doc</title><circle class="cls-1" cx="350.5" cy="350.5" r="343.5"/><path class="cls-1" d="M549,430V226.75A26.74,26.74,0,0,0,522.25,200H284.75A26.74,26.74,0,0,0,258,226.75v345.5A26.74,26.74,0,0,0,284.75,599H423.39" transform="translate(-53.5 -49.5)"/><path class="cls-2" d="M484.34,556.53l-22.85-24.46a15.68,15.68,0,0,0-23.24,0,18.14,18.14,0,0,0-4.83,12.46A17.94,17.94,0,0,0,438.25,557l34.45,36.88a15.68,15.68,0,0,0,23.24,0L601.17,481.17a18.43,18.43,0,0,0,0-24.88,15.69,15.69,0,0,0-23.25,0Z" transform="translate(-53.5 -49.5)"/><rect class="cls-2" x="250" y="200.52" width="200" height="23.96" rx="6.33"/><rect class="cls-2" x="250.76" y="260.89" width="200" height="23.96" rx="6.33"/><rect class="cls-2" x="250.76" y="320.89" width="200" height="23.96" rx="6.33"/><rect class="cls-2" x="250.76" y="380.89" width="110" height="23.96" rx="6.33"/></svg>